<svg width="4470" height="832" viewBox="0 0 4470 832" fill="none" xmlns="http://www.w3.org/2000/svg">
<path d="M1083.7 665.866L988.806 665.866L789.273 170.283L921.862 170.283L1036.25 498.83L1149.02 170.283L1283.23 170.283L1083.7 665.866Z" fill="white"/>
<path d="M1436.94 170.283L1318 170.283L1318 666.191L1436.94 666.191L1436.94 170.283Z" fill="white"/>
<path d="M1787.91 677.567C1714.47 677.567 1667.02 657.094 1616 602.498L1616 666.193L1506.81 666.193L1506.81 4.54883L1625.75 4.54885L1625.75 215.781C1671.25 170.285 1715.12 152.086 1779.79 152.086C1922.12 152.086 2029.37 264.852 2029.37 414.339C2029.69 563.827 1927.65 677.567 1787.91 677.567ZM1762.89 261.602C1679.69 261.602 1618.93 325.297 1618.93 414.664C1618.93 505.007 1679.69 568.701 1765.81 568.701C1850.96 568.701 1909.78 505.982 1909.78 415.639C1909.78 326.922 1848.03 261.602 1762.89 261.602Z" fill="white"/>
<path d="M2190.56 390.289L2190.56 665.866L2071.62 665.866L2071.62 170.283L2180.81 170.283L2180.81 218.704C2212.01 173.208 2237.03 158.584 2288.05 158.584L2297.15 158.584L2297.15 272.974C2225.66 274.924 2190.56 313.271 2190.56 390.289Z" fill="white"/>
<path d="M3117.37 665.866L3117.37 423.437C3117.37 290.848 3081.63 267.775 3022.48 267.775C2984.79 267.775 2953.59 284.023 2934.74 313.271C2919.47 337.319 2914.92 365.916 2914.92 432.211L2914.92 665.866L2795.98 665.866L2795.98 170.283L2906.14 170.283L2906.14 217.729C2950.01 175.808 2989.34 158.584 3045.88 158.584C3114.77 158.584 3168.4 183.607 3200.57 230.078C3227.54 268.425 3236.31 311.646 3236.31 400.039L3236.31 665.866L3117.37 665.866Z" fill="white"/>
<path d="M3538.87 677.576C3391.98 677.576 3274.01 562.21 3274.01 417.923C3274.01 272.01 3388.41 158.27 3535.29 158.27C3648.06 158.27 3746.52 221.964 3784.87 335.38L3650.66 335.38C3626.61 289.883 3588.91 267.46 3535.29 267.46C3453.07 267.46 3393.93 330.18 3393.93 416.948C3393.93 503.715 3455.67 568.06 3537.89 568.06C3586.96 568.06 3621.09 548.237 3650.66 502.74L3784.87 502.74C3743.6 614.206 3654.23 677.576 3538.87 677.576Z" fill="white"/>
<path d="M3972.05 831.602L3844.02 831.602L3936.96 619.395L3755.62 170.283L3891.79 170.283L4001.95 491.681L4121.87 170.283L4258.68 170.283L3972.05 831.602Z" fill="white"/>
<path d="M1374.55 124.789C1409.01 124.789 1436.95 96.8544 1436.95 62.3947C1436.95 27.9351 1409.01 1.69346e-05 1374.55 1.09094e-05C1340.09 4.88432e-06 1312.16 27.9351 1312.16 62.3947C1312.16 96.8544 1340.09 124.789 1374.55 124.789Z" fill="white"/>
<path d="M2464.5 170.283L2559.39 170.283L2758.93 666.191L2626.34 666.191L2511.95 337.644L2399.18 666.191L2264.97 666.191L2464.5 170.283Z" fill="white"/>
<path d="M4338.91 236.651V205.563H4343.15L4354.52 223.783L4365.88 205.563H4370.13V236.651H4364.16V218.122L4356.55 230.283H4352.48L4344.92 218.078V236.651H4338.91Z" fill="white"/>
<path d="M4318.79 236.651V210.914H4308.88V205.563H4334.75V210.914H4324.85V236.651H4318.79Z" fill="white"/>
<circle cx="4339.51" cy="221.107" r="47.6927" stroke="white" stroke-width="6.26264"/>
<path d="M354.799 4.27637H0V331.395C0 516.075 149.791 665.866 334.471 665.866H689.27V338.748C689.27 154.068 539.623 4.27637 354.799 4.27637ZM603.778 337.883C472.729 359.364 369.216 462.877 347.59 594.07C347.302 596.089 344.275 595.8 344.275 593.782V335.432H85.7803C83.762 335.432 83.4736 332.548 85.492 332.116C216.541 310.635 320.054 207.122 341.535 75.9282C341.824 73.9098 344.851 74.1982 344.851 76.2165V334.423H603.49C605.652 334.567 605.796 337.594 603.778 337.883ZM344.851 334.567H344.419V335.432H344.851V334.567Z" fill="white"/>
</svg>
